# xmcd
#
# Track frame offsets: 
#        150
#        28587
#        46621
#        65831
#        82997
#        103090
#        122468
#        142963
#        160463
#        177204
#        193401
#        213135
#
# Disc length: 3126 seconds
#
# Revision: 1
# Processed by: cddbd v1.5.2PL0 Copyright (c) Steve Scherf et al.
# Submitted via: ExactAudioCopy v0.95a5
#
DISCID=a10c340c
DTITLE=李函曦 - 飛天
DYEAR=2007
DGENRE=Vocal
TTITLE0=艾里蒲與賽乃姆
TTITLE1=夢江南
TTITLE2=我和草原有個約定
TTITLE3=送我一支玫瑰花
TTITLE4=月牙泉
TTITLE5=四季歌
TTITLE6=賣花姑娘
TTITLE7=青春舞曲
TTITLE8=雁南飛
TTITLE9=出賽曲
TTITLE10=牧歌
TTITLE11=天路
EXTD=
EXTT0=
EXTT1=
EXTT2=
EXTT3=
EXTT4=
EXTT5=
EXTT6=
EXTT7=
EXTT8=
EXTT9=
EXTT10=
EXTT11=
PLAYORDER=
